<svg width="48" height="50" viewBox="0 0 48 50" fill="none" xmlns="http://www.w3.org/2000/svg">
<path fill-rule="evenodd" clip-rule="evenodd" d="M11.6757 25C11.6757 17.9098 17.1934 12.1622 24.0001 12.1622C30.8066 12.1622 36.3243 17.9098 36.3243 25C36.3243 32.0902 30.8066 37.8378 24.0001 37.8378C17.1934 37.8378 11.6757 32.0902 11.6757 25ZM24 33.3333C19.5817 33.3333 16 29.6024 16 25C16 20.3976 19.5817 16.6667 24 16.6667C28.4183 16.6667 32 20.3976 32 25C32 29.6024 28.4183 33.3333 24 33.3333Z" fill="url(#paint0_linear_13_12)"/>
<path fill-rule="evenodd" clip-rule="evenodd" d="M11.6757 25C11.6757 17.9098 17.1934 12.1622 24.0001 12.1622C30.8066 12.1622 36.3243 17.9098 36.3243 25C36.3243 32.0902 30.8066 37.8378 24.0001 37.8378C17.1934 37.8378 11.6757 32.0902 11.6757 25ZM24 33.3333C19.5817 33.3333 16 29.6024 16 25C16 20.3976 19.5817 16.6667 24 16.6667C28.4183 16.6667 32 20.3976 32 25C32 29.6024 28.4183 33.3333 24 33.3333Z" fill="url(#paint1_radial_13_12)"/>
<path d="M36.8112 14.6549C38.4018 14.6549 39.6913 13.3118 39.6913 11.655C39.6913 9.99809 38.4018 8.65491 36.8112 8.65491C35.2207 8.65491 33.9313 9.99809 33.9313 11.655C33.9313 13.3118 35.2207 14.6549 36.8112 14.6549Z" fill="url(#paint2_linear_13_12)"/>
<path d="M36.8112 14.6549C38.4018 14.6549 39.6913 13.3118 39.6913 11.655C39.6913 9.99809 38.4018 8.65491 36.8112 8.65491C35.2207 8.65491 33.9313 9.99809 33.9313 11.655C33.9313 13.3118 35.2207 14.6549 36.8112 14.6549Z" fill="url(#paint3_radial_13_12)"/>
<path fill-rule="evenodd" clip-rule="evenodd" d="M24 0C17.482 0 16.6647 0.0287789 14.1048 0.150444C11.5503 0.271812 9.80567 0.694465 8.27909 1.31252C6.70088 1.95131 5.36245 2.80614 4.02813 4.19597C2.6939 5.58589 1.87326 6.98008 1.26002 8.62405C0.666687 10.2142 0.260939 12.0316 0.144427 14.6925C0.0276278 17.359 0 18.2104 0 25C0 31.7896 0.0276278 32.6409 0.144427 35.3075C0.260939 37.9684 0.666687 39.7858 1.26002 41.3759C1.87326 43.0199 2.6939 44.4141 4.02813 45.804C5.36245 47.1939 6.70088 48.0487 8.27909 48.6876C9.80567 49.3055 11.5503 49.7282 14.1048 49.8496C16.6647 49.9712 17.482 50 24 50C30.518 50 31.3353 49.9712 33.8952 49.8496C36.4497 49.7282 38.1943 49.3055 39.7209 48.6876C41.2991 48.0487 42.6375 47.1939 43.9719 45.804C45.3061 44.4141 46.1267 43.0199 46.7401 41.3759C47.3333 39.7858 47.7391 37.9684 47.8556 35.3075C47.9724 32.6409 48 31.7896 48 25C48 18.2104 47.9724 17.359 47.8556 14.6925C47.7391 12.0316 47.3333 10.2142 46.7401 8.62405C46.1267 6.98008 45.3061 5.58589 43.9719 4.19597C42.6375 2.80614 41.2991 1.95131 39.7209 1.31252C38.1943 0.694465 36.4497 0.271812 33.8952 0.150444C31.3353 0.0287789 30.518 0 24 0ZM24.0001 4.5045C30.4083 4.5045 31.1674 4.53 33.6981 4.65028C36.038 4.76142 37.3088 5.16869 38.1545 5.51106C39.2748 5.96458 40.0743 6.50632 40.9141 7.3812C41.7539 8.25598 42.274 9.08878 42.7094 10.2557C43.0381 11.1366 43.429 12.4604 43.5357 14.8979C43.6512 17.534 43.6757 18.3247 43.6757 25C43.6757 31.6753 43.6512 32.466 43.5357 35.1021C43.429 37.5396 43.0381 38.8633 42.7094 39.7443C42.274 40.9112 41.7539 41.744 40.9141 42.6188C40.0743 43.4937 39.2748 44.0354 38.1545 44.4889C37.3088 44.8313 36.038 45.2386 33.6981 45.3497C31.1677 45.47 30.4087 45.4955 24.0001 45.4955C17.5913 45.4955 16.8324 45.47 14.3019 45.3497C11.962 45.2386 10.6912 44.8313 9.84549 44.4889C8.72523 44.0354 7.92574 43.4937 7.08595 42.6188C6.24617 41.744 5.726 40.9112 5.29063 39.7443C4.96195 38.8633 4.57097 37.5396 4.46427 35.1021C4.34881 32.466 4.32432 31.6753 4.32432 25C4.32432 18.3247 4.34881 17.534 4.46427 14.8979C4.57097 12.4604 4.96195 11.1366 5.29063 10.2557C5.726 9.08878 6.24607 8.25598 7.08595 7.3812C7.92574 6.50632 8.72523 5.96458 9.84549 5.51106C10.6912 5.16869 11.962 4.76142 14.3019 4.65028C16.8326 4.53 17.5917 4.5045 24.0001 4.5045Z" fill="url(#paint4_linear_13_12)"/>
<path fill-rule="evenodd" clip-rule="evenodd" d="M24 0C17.482 0 16.6647 0.0287789 14.1048 0.150444C11.5503 0.271812 9.80567 0.694465 8.27909 1.31252C6.70088 1.95131 5.36245 2.80614 4.02813 4.19597C2.6939 5.58589 1.87326 6.98008 1.26002 8.62405C0.666687 10.2142 0.260939 12.0316 0.144427 14.6925C0.0276278 17.359 0 18.2104 0 25C0 31.7896 0.0276278 32.6409 0.144427 35.3075C0.260939 37.9684 0.666687 39.7858 1.26002 41.3759C1.87326 43.0199 2.6939 44.4141 4.02813 45.804C5.36245 47.1939 6.70088 48.0487 8.27909 48.6876C9.80567 49.3055 11.5503 49.7282 14.1048 49.8496C16.6647 49.9712 17.482 50 24 50C30.518 50 31.3353 49.9712 33.8952 49.8496C36.4497 49.7282 38.1943 49.3055 39.7209 48.6876C41.2991 48.0487 42.6375 47.1939 43.9719 45.804C45.3061 44.4141 46.1267 43.0199 46.7401 41.3759C47.3333 39.7858 47.7391 37.9684 47.8556 35.3075C47.9724 32.6409 48 31.7896 48 25C48 18.2104 47.9724 17.359 47.8556 14.6925C47.7391 12.0316 47.3333 10.2142 46.7401 8.62405C46.1267 6.98008 45.3061 5.58589 43.9719 4.19597C42.6375 2.80614 41.2991 1.95131 39.7209 1.31252C38.1943 0.694465 36.4497 0.271812 33.8952 0.150444C31.3353 0.0287789 30.518 0 24 0ZM24.0001 4.5045C30.4083 4.5045 31.1674 4.53 33.6981 4.65028C36.038 4.76142 37.3088 5.16869 38.1545 5.51106C39.2748 5.96458 40.0743 6.50632 40.9141 7.3812C41.7539 8.25598 42.274 9.08878 42.7094 10.2557C43.0381 11.1366 43.429 12.4604 43.5357 14.8979C43.6512 17.534 43.6757 18.3247 43.6757 25C43.6757 31.6753 43.6512 32.466 43.5357 35.1021C43.429 37.5396 43.0381 38.8633 42.7094 39.7443C42.274 40.9112 41.7539 41.744 40.9141 42.6188C40.0743 43.4937 39.2748 44.0354 38.1545 44.4889C37.3088 44.8313 36.038 45.2386 33.6981 45.3497C31.1677 45.47 30.4087 45.4955 24.0001 45.4955C17.5913 45.4955 16.8324 45.47 14.3019 45.3497C11.962 45.2386 10.6912 44.8313 9.84549 44.4889C8.72523 44.0354 7.92574 43.4937 7.08595 42.6188C6.24617 41.744 5.726 40.9112 5.29063 39.7443C4.96195 38.8633 4.57097 37.5396 4.46427 35.1021C4.34881 32.466 4.32432 31.6753 4.32432 25C4.32432 18.3247 4.34881 17.534 4.46427 14.8979C4.57097 12.4604 4.96195 11.1366 5.29063 10.2557C5.726 9.08878 6.24607 8.25598 7.08595 7.3812C7.92574 6.50632 8.72523 5.96458 9.84549 5.51106C10.6912 5.16869 11.962 4.76142 14.3019 4.65028C16.8326 4.53 17.5917 4.5045 24.0001 4.5045Z" fill="url(#paint5_radial_13_12)"/>
<defs>
<linearGradient id="paint0_linear_13_12" x1="2.80065" y1="2.62865" x2="19.135" y2="63.2847" gradientUnits="userSpaceOnUse">
<stop stop-color="#4E60D3"/>
<stop offset="0.142763" stop-color="#913BAF"/>
<stop offset="0.761458" stop-color="#D52D88"/>
<stop offset="1" stop-color="#F26D4F"/>
</linearGradient>
<radialGradient id="paint1_radial_13_12" cx="0" cy="0" r="1" gradientUnits="userSpaceOnUse" gradientTransform="translate(14.5317 50) rotate(33.2232) scale(45.3665 33.2087)">
<stop stop-color="#FED276"/>
<stop offset="0.17024" stop-color="#FDBD61" stop-opacity="0.975006"/>
<stop offset="0.454081" stop-color="#F6804D"/>
<stop offset="1" stop-color="#E83D5C" stop-opacity="0.01"/>
</radialGradient>
<linearGradient id="paint2_linear_13_12" x1="2.80065" y1="2.62865" x2="19.135" y2="63.2847" gradientUnits="userSpaceOnUse">
<stop stop-color="#4E60D3"/>
<stop offset="0.142763" stop-color="#913BAF"/>
<stop offset="0.761458" stop-color="#D52D88"/>
<stop offset="1" stop-color="#F26D4F"/>
</linearGradient>
<radialGradient id="paint3_radial_13_12" cx="0" cy="0" r="1" gradientUnits="userSpaceOnUse" gradientTransform="translate(14.5317 50) rotate(33.2232) scale(45.3665 33.2087)">
<stop stop-color="#FED276"/>
<stop offset="0.17024" stop-color="#FDBD61" stop-opacity="0.975006"/>
<stop offset="0.454081" stop-color="#F6804D"/>
<stop offset="1" stop-color="#E83D5C" stop-opacity="0.01"/>
</radialGradient>
<linearGradient id="paint4_linear_13_12" x1="2.80065" y1="2.62865" x2="19.135" y2="63.2847" gradientUnits="userSpaceOnUse">
<stop stop-color="#4E60D3"/>
<stop offset="0.142763" stop-color="#913BAF"/>
<stop offset="0.761458" stop-color="#D52D88"/>
<stop offset="1" stop-color="#F26D4F"/>
</linearGradient>
<radialGradient id="paint5_radial_13_12" cx="0" cy="0" r="1" gradientUnits="userSpaceOnUse" gradientTransform="translate(14.5317 50) rotate(33.2232) scale(45.3665 33.2087)">
<stop stop-color="#FED276"/>
<stop offset="0.17024" stop-color="#FDBD61" stop-opacity="0.975006"/>
<stop offset="0.454081" stop-color="#F6804D"/>
<stop offset="1" stop-color="#E83D5C" stop-opacity="0.01"/>
</radialGradient>
</defs>
</svg>
