<svg width="42" height="47" viewBox="0 0 42 47" fill="none" xmlns="http://www.w3.org/2000/svg">
<path d="M21.3997 35.5871L22.2846 37.3807L22.2846 37.3807L21.3997 35.5871ZM20.6003 35.5871L19.7154 37.3807H19.7154L20.6003 35.5871ZM33.7778 16.7778C33.7778 21.5972 31.1887 25.5212 28.0905 28.4892C25.0005 31.4494 21.6095 33.2534 20.5149 33.7935L22.2846 37.3807C23.5509 36.756 27.3489 34.739 30.8576 31.3776C34.3583 28.024 37.7778 23.1257 37.7778 16.7778H33.7778ZM21 4C28.057 4 33.7778 9.72081 33.7778 16.7778H37.7778C37.7778 7.51167 30.2661 0 21 0V4ZM8.22223 16.7778C8.22223 9.72081 13.943 4 21 4V0C11.7339 0 4.22223 7.51167 4.22223 16.7778H8.22223ZM21.4851 33.7935C20.3905 33.2534 16.9996 31.4494 13.9095 28.4892C10.8113 25.5212 8.22223 21.5972 8.22223 16.7778H4.22223C4.22223 23.1257 7.64173 28.024 11.1424 31.3776C14.6511 34.739 18.4492 36.756 19.7154 37.3807L21.4851 33.7935ZM20.5149 33.7935C20.8172 33.6443 21.1828 33.6443 21.4851 33.7935L19.7154 37.3807C20.5287 37.7819 21.4713 37.7819 22.2846 37.3807L20.5149 33.7935ZM25.3333 16.7778C25.3333 19.171 23.3932 21.1111 21 21.1111V25.1111C25.6023 25.1111 29.3333 21.3802 29.3333 16.7778H25.3333ZM21 12.4445C23.3932 12.4445 25.3333 14.3846 25.3333 16.7778H29.3333C29.3333 12.1754 25.6023 8.44448 21 8.44448V12.4445ZM16.6666 16.7778C16.6666 14.3846 18.6067 12.4445 21 12.4445V8.44448C16.3976 8.44448 12.6666 12.1754 12.6666 16.7778H16.6666ZM21 21.1111C18.6067 21.1111 16.6666 19.171 16.6666 16.7778H12.6666C12.6666 21.3802 16.3976 25.1111 21 25.1111V21.1111Z" fill="black"/>
<path d="M37.4545 34.7221C39.1221 35.6849 40 36.777 40 37.8888C40 39.0005 39.1221 40.0926 37.4545 41.0554C35.7869 42.0182 33.3884 42.8177 30.5 43.3736C27.6116 43.9294 24.3352 44.2221 21 44.2221C17.6648 44.2221 14.3884 43.9294 11.5 43.3736C8.61164 42.8177 6.21312 42.0182 4.54552 41.0554C2.87792 40.0926 2 39.0005 2 37.8888C2 36.777 2.87792 35.6849 4.54552 34.7221" stroke="black" stroke-width="4" stroke-linecap="round"/>
</svg>
